<svg width="1200" height="700" viewBox="0 0 1200 700" xmlns="http://www.w3.org/2000/svg">
  <defs>
    <linearGradient id="header-bg" x1="0" y1="0" x2="1" y2="1">
      <stop offset="0%" stop-color="#0d1b2e"/>
      <stop offset="60%" stop-color="#162844"/>
      <stop offset="100%" stop-color="#0d1b2e"/>
    </linearGradient>
  </defs>

  <!-- LAYER 1: Background gradient -->
  <rect width="1200" height="700" fill="url(#header-bg)"/>

  <!-- LAYER 2: Hexagon pattern (exact viewBox from app, auto-cropped via xMidYMid slice) -->
  <svg x="0" y="0" width="1200" height="700" viewBox="-200 -147 2209 651" preserveAspectRatio="xMidYMid slice">
    <path d="M89.293 -90.903C91.3699 -92.102 93.9289 -92.1021 96.0059 -90.903L180.404 -42.1754C182.481 -40.9764 183.761 -38.7601 183.761 -36.362V61.0941C183.761 63.4923 182.481 65.7085 180.404 66.9076L96.0059 115.635C93.9289 116.834 91.3699 116.834 89.293 115.635L4.89355 66.9076C2.81671 65.7084 1.53717 63.4922 1.53711 61.0941V-36.362C1.53721 -38.7601 2.81672 -40.9764 4.89355 -42.1754L89.293 -90.903Z" fill="rgba(22,40,68,0.5)" stroke="rgba(90,141,227,0.4)" stroke-width="3.09822"/>
    <path d="M92.6914 -89.6949L92.6914 12.152" stroke="rgba(90,141,227,0.1)" stroke-width="1.18765"/>
    <path d="M3.69482 63.3858L92.6914 12.0036" stroke="rgba(90,141,227,0.1)" stroke-width="1.18765"/>
    <path d="M181.687 63.3756L92.6902 11.9914" stroke="rgba(90,141,227,0.1)" stroke-width="1.18765"/>
    <path d="M1489.84 96.0015C1492.62 94.3936 1496.05 94.3936 1498.84 96.0015L1568.83 136.41C1571.61 138.018 1573.33 140.989 1573.33 144.205V225.02C1573.33 228.236 1571.61 231.208 1568.83 232.816L1498.84 273.224C1496.05 274.832 1492.62 274.832 1489.84 273.224L1419.85 232.816C1417.06 231.208 1415.35 228.236 1415.35 225.02V144.205C1415.35 141.089 1416.96 138.203 1419.59 136.564L1419.85 136.41L1489.84 96.0015Z" fill="rgba(22,40,68,0.5)" stroke="rgba(90,141,227,0.4)" stroke-width="2.68602"/>
    <path d="M1494.38 96.1237L1494.38 184.42" stroke="rgba(90,141,227,0.1)" stroke-width="1.02964"/>
    <path d="M1417.22 228.841L1494.38 184.295" stroke="rgba(90,141,227,0.1)" stroke-width="1.02964"/>
    <path d="M1571.52 228.839L1494.36 184.292" stroke="rgba(90,141,227,0.1)" stroke-width="1.02964"/>
    <path d="M1211.83 25.1494C1214.62 23.5415 1218.05 23.5415 1220.83 25.1494L1290.82 65.5576C1293.61 67.1656 1295.32 70.1368 1295.32 73.3526V154.168C1295.32 157.384 1293.61 160.356 1290.82 161.964L1220.83 202.372C1218.05 203.98 1214.62 203.98 1211.83 202.372L1141.84 161.964C1139.06 160.356 1137.34 157.384 1137.34 154.168V73.3526C1137.34 70.2372 1138.95 67.3511 1141.59 65.7119L1141.84 65.5576L1211.83 25.1494Z" fill="rgba(22,40,68,0.5)" stroke="rgba(90,141,227,0.4)" stroke-width="2.68602"/>
    <path d="M1216.37 25.2715L1216.37 113.568" stroke="rgba(90,141,227,0.1)" stroke-width="1.02964"/>
    <path d="M1139.5 158L1216.37 113.443" stroke="rgba(90,141,227,0.1)" stroke-width="1.02964"/>
    <path d="M1293.51 157.987L1216.36 113.439" stroke="rgba(90,141,227,0.1)" stroke-width="1.02964"/>
    <path d="M1132.83 163.149C1135.62 161.541 1139.05 161.541 1141.83 163.149L1211.82 203.558C1214.61 205.166 1216.32 208.137 1216.32 211.353V292.168C1216.32 295.384 1214.61 298.356 1211.82 299.964L1141.83 340.372C1139.05 341.98 1135.62 341.98 1132.83 340.372L1062.84 299.964C1060.06 298.356 1058.34 295.384 1058.34 292.168V211.353C1058.34 208.237 1059.95 205.351 1062.59 203.712L1062.84 203.558L1132.83 163.149Z" fill="rgba(22,40,68,0.5)" stroke="rgba(90,141,227,0.4)" stroke-width="2.68602"/>
    <path d="M1137.37 163.272L1137.37 251.568" stroke="rgba(90,141,227,0.1)" stroke-width="1.02964"/>
    <path d="M1060.22 295.989L1137.37 251.443" stroke="rgba(90,141,227,0.1)" stroke-width="1.02964"/>
    <path d="M1214.51 295.987L1137.36 251.439" stroke="rgba(90,141,227,0.1)" stroke-width="1.02964"/>
    <path d="M1568.37 233.094C1571.16 231.486 1574.59 231.486 1577.37 233.094L1647.36 273.502C1650.15 275.11 1651.86 278.081 1651.86 281.297V362.112C1651.86 365.328 1650.15 368.3 1647.36 369.908L1577.37 410.316C1574.59 411.924 1571.16 411.924 1568.37 410.316L1498.38 369.908C1495.6 368.3 1493.88 365.328 1493.88 362.112V281.297C1493.88 278.181 1495.49 275.295 1498.12 273.656L1498.38 273.502L1568.37 233.094Z" fill="rgba(22,40,68,0.5)" stroke="rgba(90,141,227,0.4)" stroke-width="2.68602"/>
    <path d="M1572.91 233.226L1572.91 321.523" stroke="rgba(90,141,227,0.1)" stroke-width="1.02964"/>
    <path d="M1495.75 365.928L1572.91 321.382" stroke="rgba(90,141,227,0.1)" stroke-width="1.02964"/>
    <path d="M1650.06 365.931L1572.91 321.383" stroke="rgba(90,141,227,0.1)" stroke-width="1.02964"/>
    <path d="M1802.66 -91.2334C1805.03 -92.6031 1807.96 -92.6032 1810.33 -91.2334L1931.89 -21.0469C1934.27 -19.677 1935.73 -17.1451 1935.73 -14.4053V125.967C1935.73 128.707 1934.27 131.238 1931.89 132.608L1810.33 202.795C1807.96 204.165 1805.03 204.165 1802.66 202.795L1681.09 132.608C1678.72 131.238 1677.26 128.707 1677.26 125.967V-14.4053C1677.26 -17.1451 1678.72 -19.677 1681.09 -21.0469L1802.66 -91.2334Z" fill="rgba(22,40,68,0.5)" stroke="rgba(90,141,227,0.4)" stroke-width="2.69"/>
    <path d="M1806.57 -88.0402L1806.57 55.4849" stroke="rgba(90,141,227,0.1)" stroke-width="1.67367"/>
    <path d="M1681.15 127.672L1806.57 55.2626" stroke="rgba(90,141,227,0.1)" stroke-width="1.67367"/>
    <path d="M1931.98 127.669L1806.57 55.257" stroke="rgba(90,141,227,0.1)" stroke-width="1.67367"/>
    <path d="M270.992 -91.2734C273.069 -92.4725 275.628 -92.4725 277.705 -91.2734L362.104 -42.5459C364.18 -41.3468 365.46 -39.1306 365.46 -36.7324V60.7236C365.46 63.1218 364.18 65.338 362.104 66.5371L277.705 115.265C275.628 116.464 273.069 116.464 270.992 115.265L186.593 66.5371C184.516 65.338 183.236 63.1218 183.236 60.7236V-36.7324C183.236 -39.1305 184.516 -41.3468 186.593 -42.5459L270.992 -91.2734Z" fill="rgba(22,40,68,0.5)" stroke="rgba(90,141,227,0.4)" stroke-width="3.09822"/>
    <path d="M274.402 -90.0651L274.402 11.7818" stroke="rgba(90,141,227,0.1)" stroke-width="1.18765"/>
    <path d="M185.406 63.0156L274.402 11.6334" stroke="rgba(90,141,227,0.1)" stroke-width="1.18765"/>
    <path d="M363.396 63.0102L274.399 11.626" stroke="rgba(90,141,227,0.1)" stroke-width="1.18765"/>
    <path d="M561.668 266.326C564.079 264.934 567.049 264.934 569.46 266.326L667.434 322.891C669.845 324.283 671.33 326.856 671.33 329.64V442.77C671.33 445.553 669.844 448.126 667.434 449.518L569.46 506.083C567.049 507.475 564.079 507.475 561.668 506.083L463.694 449.518C461.284 448.126 459.798 445.553 459.798 442.77V329.64C459.798 326.856 461.283 324.283 463.694 322.891L561.668 266.326Z" fill="rgba(22,40,68,0.5)" stroke="rgba(90,141,227,0.4)" stroke-width="3.59653"/>
    <path d="M565.625 267.729L565.625 385.956" stroke="rgba(90,141,227,0.1)" stroke-width="1.37867"/>
    <path d="M180.398 66.7353C182.475 65.5362 185.034 65.5362 187.111 66.7353L271.51 115.463C273.587 116.662 274.866 118.878 274.866 121.276V218.732C274.866 221.131 273.587 223.347 271.51 224.546L187.111 273.273C185.034 274.472 182.475 274.472 180.398 273.273L95.999 224.546C93.9222 223.347 92.6426 221.131 92.6426 218.732V121.276C92.6427 118.878 93.9222 116.662 95.999 115.463L180.398 66.7353Z" fill="rgba(22,40,68,0.5)" stroke="rgba(90,141,227,0.4)" stroke-width="3.09822"/>
    <path d="M183.811 67.9428L183.811 169.79" stroke="rgba(90,141,227,0.1)" stroke-width="1.18765"/>
    <path d="M94.814 221.029L183.811 169.647" stroke="rgba(90,141,227,0.1)" stroke-width="1.18765"/>
    <path d="M272.802 221.019L183.805 169.635" stroke="rgba(90,141,227,0.1)" stroke-width="1.18765"/>
  </svg>

  <!-- LAYER 3: Department line -->
  <text x="600" y="60" text-anchor="middle" font-family="Roboto, Arial, Helvetica, sans-serif" font-size="24" font-weight="700" letter-spacing="4" fill="#5A8DE3">DATA APPLICATIONS &#xB7; MIDCORE DISTRICT, MTG</text>

  <!-- LAYER 4: Lab360 logo (blue-converted, same as app rendering) -->
  <g transform="translate(445, 110) scale(2.35)">
    <path d="M63.6787 3.09663C65.4045 2.10025 67.5311 2.10025 69.2568 3.09663L128.859 37.5078C130.585 38.5041 131.648 40.3461 131.648 42.3388V111.162C131.648 113.155 130.585 114.996 128.859 115.992L69.2568 150.404C67.5311 151.401 65.4045 151.401 63.6787 150.404L4.07617 115.992C2.35047 114.996 1.28711 113.155 1.28711 111.162V42.3388C1.28711 40.3461 2.35039 38.5041 4.07617 37.5078L63.6787 3.09663Z" fill="#5A8DE3" fill-opacity="0.15" stroke="#5A8DE3" stroke-width="2.57437"/>
    <path d="M66.5049 3.6386L66.5049 30.6465" stroke="#5A8DE3" stroke-width="0.986843"/>
    <path d="M3.06725 113.213L66.5059 76.5867" stroke="#5A8DE3" stroke-width="0.986843"/>
    <path d="M129.89 113.18L66.5081 76.5868" stroke="#5A8DE3" stroke-width="0.986843"/>
    <path d="M66.4686 70.1239L34.4131 88.2894L66.4686 106.037L98.3767 88.2894L66.4686 70.1239Z" fill="#496695"/>
    <path d="M66.3728 106.608L34.0656 88.6117C33.7796 88.4524 33.4277 88.6592 33.4277 88.9865V102.331C33.4277 102.483 33.5075 102.623 33.6377 102.7L65.9449 121.889C66.2309 122.059 66.5931 121.853 66.5931 121.521V106.983C66.5931 106.828 66.5088 106.684 66.3728 106.608Z" fill="#6482b1"/>
    <path d="M66.8133 106.374L98.8565 88.4403C99.1425 88.2803 99.4951 88.487 99.4951 88.8148V102.41C99.4951 102.562 99.4147 102.702 99.2836 102.779L67.2404 121.634C66.9544 121.802 66.5938 121.596 66.5938 121.264V106.749C66.5938 106.593 66.6777 106.45 66.8133 106.374Z" fill="#6886b8"/>
    <path d="M64.6582 31.8123C65.847 31.1314 67.3073 31.1315 68.4961 31.8123L76.6816 36.4998C77.8828 37.1878 78.624 38.4661 78.624 39.8504V55.9412C78.624 56.2034 78.7041 56.4592 78.8535 56.6746L99.6494 86.6502C100.098 87.2965 100.338 88.0647 100.338 88.8513V100.857C100.338 102.223 99.6159 103.488 98.4395 104.182L68.5361 121.836C67.3283 122.549 65.8289 122.551 64.6191 121.842L34.5283 104.183C33.3469 103.49 32.6211 102.222 32.6211 100.852V88.8582C32.6211 88.0659 32.865 87.2924 33.3193 86.6433L54.2979 56.6736C54.4493 56.4573 54.5312 56.1994 54.5312 55.9353V39.8504C54.5313 38.466 55.2723 37.1878 56.4736 36.4998L64.6582 31.8123Z" stroke="#5A8DE3" stroke-width="2.57437" fill="none"/>
    <path d="M54.7481 37.8086L66.5422 44.6179M66.5422 44.6179L78.3363 37.8086M66.5422 44.6179V62.6154M66.5422 121.498V106.435M66.5422 106.435L34.2998 88.5165C34.0066 88.3536 34.0053 87.9325 34.2974 87.7678L66.5422 69.5822M66.5422 106.435L98.5064 88.5157C98.7977 88.3525 98.799 87.9337 98.5088 87.7685L66.5422 69.5822M66.5422 106.435V69.5822M66.5422 69.5822V62.6154M66.5422 62.6154L78.3363 55.806M66.5422 62.6154L54.7481 55.806M66.5421 35.151V40.849M60.9637 37.4408L66.3381 34.4992C66.4654 34.4296 66.6192 34.4289 66.7471 34.4976L72.2252 37.4392C72.5233 37.5993 72.5274 38.0254 72.2324 38.1912L66.7544 41.27C66.6228 41.3439 66.462 41.3433 66.3309 41.2682L60.9564 38.1894C60.6655 38.0228 60.6696 37.6017 60.9637 37.4408Z" stroke="#5A8DE3" stroke-width="1.28719" fill="none"/>
  </g>

  <!-- LAYER 5: App title -->
  <text x="600" y="530" text-anchor="middle" font-family="Roboto, Arial, Helvetica, sans-serif" font-size="48" font-weight="800" letter-spacing="4" fill="#ffffff">Lab360</text>

  <!-- LAYER 6: Tagline -->
  <text x="600" y="575" text-anchor="middle" font-family="Roboto, Arial, Helvetica, sans-serif" font-size="20" letter-spacing="8" fill="#5A8DE3">RELEASE NOTES</text>

  <!-- LAYER 7: Bottom accent border -->
  <rect x="0" y="696" width="1200" height="4" fill="#5A8DE3"/>

  <!--
    DESIGN SPECS:
    =============
    Canvas: 1200x700 (retina for 600px email)
    Font: Roboto (Google Font)
    Background: linear-gradient(135deg, #0d1b2e 0%, #162844 60%, #0d1b2e 100%)
    Accent blue: #5A8DE3
    Hex fill: rgba(22,40,68,0.5)
    Hex stroke: rgba(90,141,227,0.4)
    Hex inner lines: rgba(90,141,227,0.1)
    Logo colors (blue-converted from original greys):
      white fill -> #5A8DE3 at 15% opacity
      white stroke -> #5A8DE3
      #5C6976 -> #496695
      #858F98 -> #6482b1
      #ADB4BB -> #6886b8
    Title: white, 48px, weight 800
    Tagline: #5A8DE3, 20px, letter-spacing 8
    Dept line: #5A8DE3, 24px, weight 700, letter-spacing 4
  -->
</svg>
