<svg width="133" height="154" viewBox="0 0 133 154" fill="none" xmlns="http://www.w3.org/2000/svg">
  <!-- Lab360 logo  original white version for dark backgrounds -->
  <!-- Outer hexagon frame -->
  <path d="M63.6787 3.09663C65.4045 2.10025 67.5311 2.10025 69.2568 3.09663L128.859 37.5078C130.585 38.5041 131.648 40.3461 131.648 42.3388V111.162C131.648 113.155 130.585 114.996 128.859 115.992L69.2568 150.404C67.5311 151.401 65.4045 151.401 63.6787 150.404L4.07617 115.992C2.35047 114.996 1.28711 113.155 1.28711 111.162V42.3388C1.28711 40.3461 2.35039 38.5041 4.07617 37.5078L63.6787 3.09663Z" fill="white" fill-opacity="0.2" stroke="white" stroke-width="2.57437"/>
  <!-- Inner division lines -->
  <path d="M66.5049 3.6386L66.5049 30.6465" stroke="white" stroke-width="0.986843"/>
  <path d="M3.06725 113.213L66.5059 76.5867" stroke="white" stroke-width="0.986843"/>
  <path d="M129.89 113.18L66.5081 76.5868" stroke="white" stroke-width="0.986843"/>
  <!-- Platform top face -->
  <path d="M66.4686 70.1239L34.4131 88.2894L66.4686 106.037L98.3767 88.2894L66.4686 70.1239Z" fill="#5C6976"/>
  <!-- Platform left face -->
  <path d="M66.3728 106.608L34.0656 88.6117C33.7796 88.4524 33.4277 88.6592 33.4277 88.9865V102.331C33.4277 102.483 33.5075 102.623 33.6377 102.7L65.9449 121.889C66.2309 122.059 66.5931 121.853 66.5931 121.521V106.983C66.5931 106.828 66.5088 106.684 66.3728 106.608Z" fill="#858F98"/>
  <!-- Platform right face -->
  <path d="M66.8133 106.374L98.8565 88.4403C99.1425 88.2803 99.4951 88.487 99.4951 88.8148V102.41C99.4951 102.562 99.4147 102.702 99.2836 102.779L67.2404 121.634C66.9544 121.802 66.5938 121.596 66.5938 121.264V106.749C66.5938 106.593 66.6777 106.45 66.8133 106.374Z" fill="#ADB4BB"/>
  <!-- Flask outline -->
  <path d="M64.6582 31.8123C65.847 31.1314 67.3073 31.1315 68.4961 31.8123L76.6816 36.4998C77.8828 37.1878 78.624 38.4661 78.624 39.8504V55.9412C78.624 56.2034 78.7041 56.4592 78.8535 56.6746L99.6494 86.6502C100.098 87.2965 100.338 88.0647 100.338 88.8513V100.857C100.338 102.223 99.6159 103.488 98.4395 104.182L68.5361 121.836C67.3283 122.549 65.8289 122.551 64.6191 121.842L34.5283 104.183C33.3469 103.49 32.6211 102.222 32.6211 100.852V88.8582C32.6211 88.0659 32.865 87.2924 33.3193 86.6433L54.2979 56.6736C54.4493 56.4573 54.5312 56.1994 54.5312 55.9353V39.8504C54.5313 38.466 55.2723 37.1878 56.4736 36.4998L64.6582 31.8123Z" stroke="white" stroke-width="2.57437"/>
  <!-- Flask internal details -->
  <path d="M54.7481 37.8086L66.5422 44.6179M66.5422 44.6179L78.3363 37.8086M66.5422 44.6179V62.6154M66.5422 121.498V106.435M66.5422 106.435L34.2998 88.5165C34.0066 88.3536 34.0053 87.9325 34.2974 87.7678L66.5422 69.5822M66.5422 106.435L98.5064 88.5157C98.7977 88.3525 98.799 87.9337 98.5088 87.7685L66.5422 69.5822M66.5422 106.435V69.5822M66.5422 69.5822V62.6154M66.5422 62.6154L78.3363 55.806M66.5422 62.6154L54.7481 55.806M66.5421 35.151V40.849M60.9637 37.4408L66.3381 34.4992C66.4654 34.4296 66.6192 34.4289 66.7471 34.4976L72.2252 37.4392C72.5233 37.5993 72.5274 38.0254 72.2324 38.1912L66.7544 41.27C66.6228 41.3439 66.462 41.3433 66.3309 41.2682L60.9564 38.1894C60.6655 38.0228 60.6696 37.6017 60.9637 37.4408Z" stroke="white" stroke-width="1.28719"/>
</svg>
